<?xml version="1.0" encoding="UTF-8" standalone="no"?>
<!-- Created with Inkscape (http://www.inkscape.org/) -->

<svg
   width="290mm"
   height="290mm"
   viewBox="0 0 290 290"
   version="1.1"
   id="svg1"
   xml:space="preserve"
   inkscape:version="1.3 (0e150ed6c4, 2023-07-21)"
   sodipodi:docname="design_svg_v1.svg"
   xmlns:inkscape="http://www.inkscape.org/namespaces/inkscape"
   xmlns:sodipodi="http://sodipodi.sourceforge.net/DTD/sodipodi-0.dtd"
   xmlns="http://www.w3.org/2000/svg"
   xmlns:svg="http://www.w3.org/2000/svg"><sodipodi:namedview
     id="namedview1"
     pagecolor="#ffffff"
     bordercolor="#111111"
     borderopacity="1"
     inkscape:showpageshadow="0"
     inkscape:pageopacity="0"
     inkscape:pagecheckerboard="1"
     inkscape:deskcolor="#d1d1d1"
     inkscape:document-units="mm"
     inkscape:zoom="0.69219276"
     inkscape:cx="397.28818"
     inkscape:cy="444.24042"
     inkscape:window-width="1920"
     inkscape:window-height="991"
     inkscape:window-x="-9"
     inkscape:window-y="-9"
     inkscape:window-maximized="1"
     inkscape:current-layer="layer1" /><defs
     id="defs1"><marker
       id="DistanceX"
       orient="auto"
       refX="0.0"
       refY="0.0"
       style="overflow:visible"><path
         d="M 3,-3 L -3,3 M 0,-5 L  0,5"
         style="stroke:#000000; stroke-width:0.5"
         id="path1" /></marker><pattern
       id="Hatch"
       patternUnits="userSpaceOnUse"
       width="8"
       height="8"
       x="0"
       y="0"><path
         d="M8 4 l-4,4"
         stroke="#000000"
         stroke-width="0.25"
         linecap="square"
         id="path2" /><path
         d="M6 2 l-4,4"
         stroke="#000000"
         stroke-width="0.25"
         linecap="square"
         id="path3" /><path
         d="M4 0 l-4,4"
         stroke="#000000"
         stroke-width="0.25"
         linecap="square"
         id="path4" /></pattern><symbol
       id="*MODEL_SPACE" /><symbol
       id="*PAPER_SPACE" /></defs><g
     inkscape:label="Calque 1"
     inkscape:groupmode="layer"
     id="layer1"><g
       inkscape:label="0"
       id="g109"
       transform="matrix(0.26458333,0,0,0.26458333,223.51624,-293.54942)"><path
         d=""
         style="fill:none;stroke:#000000"
         id="path5" /><path
         d=""
         style="fill:none;stroke:#000000"
         id="path6" /><path
         d=""
         style="fill:none;stroke:#000000"
         id="path7" /><path
         d=""
         style="fill:none;stroke:#000000"
         id="path8" /><path
         style="fill:none;stroke:#000000"
         d="m -300.026,1557.06 v 130.87"
         id="path9" /><path
         style="fill:none;stroke:#000000"
         d="M -791.365,1691.91 V 1557.16"
         id="path10" /><path
         d="m -642.13938,1277.3191 v 18.8976 h 7.55906 v -18.8976 z"
         style="fill:none;stroke:#000000"
         id="path11" /><path
         d="m -630.31145,1539.6655 a 5.6692915,5.6692915 0 0 0 -11.33858,0 5.6692915,5.6692915 0 0 0 11.33858,0 z"
         style="fill:none;stroke:#000000"
         id="path12" /><path
         d="m -594.82908,1653.0514 a 7.559055,7.559055 0 0 0 -15.11811,0 7.559055,7.559055 0 0 0 15.11811,0 z"
         style="fill:none;stroke:#000000"
         id="path13" /><path
         d="m -659.08105,1849.2587 h 56.69291 v 13.2283 h -56.69291 z"
         style="fill:none;stroke:#000000"
         id="path14" /><path
         d="m -453.1631,1296.2167 v -18.8976 h -7.55906 v 18.8976 z"
         style="fill:none;stroke:#000000"
         id="path15" /><path
         d="m -642.13938,1390.7049 h 7.55906 v 18.8976 h -7.55906 z"
         style="fill:none;stroke:#000000"
         id="path16" /><path
         d="m -460.72216,1390.7049 h 7.55906 v 18.8976 h -7.55906 z"
         style="fill:none;stroke:#000000"
         id="path17" /><path
         d="m -460.23271,1539.5669 a 5.669291,5.669291 0 0 0 -11.33858,0 5.669291,5.669291 0 0 0 11.33858,0 z"
         style="fill:none;stroke:#000000"
         id="path18" /><path
         d="m -443.64798,1652.9527 a 7.559055,7.559055 0 0 0 -15.11811,0 7.559055,7.559055 0 0 0 15.11811,0 z"
         style="fill:none;stroke:#000000"
         id="path19" /><path
         d="m -594.82908,1715.0356 a 7.559055,7.559055 0 0 0 -15.11811,0 7.559055,7.559055 0 0 0 15.11811,0 z"
         style="fill:none;stroke:#000000"
         id="path20" /><path
         d="m -443.64798,1714.937 a 7.559055,7.559055 0 0 0 -15.11811,0 7.559055,7.559055 0 0 0 15.11811,0 z"
         style="fill:none;stroke:#000000"
         id="path21" /><path
         d="m -489.00231,1849.2587 h 56.69291 v 13.2283 h -56.69291 z"
         style="fill:none;stroke:#000000"
         id="path22" /><path
         d="m -613.79313,1975.8729 a 9.44882,9.44882 0 0 0 -18.89764,0 9.44882,9.44882 0 0 0 18.89764,0 z"
         style="fill:none;stroke:#000000"
         id="path23" /><path
         d="m -462.61203,1975.8729 a 9.448819,9.448819 0 0 0 -18.89763,0 9.448819,9.448819 0 0 0 18.89763,0 z"
         style="fill:none;stroke:#000000"
         id="path24" /><path
         style="fill:none;stroke:#000000"
         d="m -698.654,2051.46 h 302.362"
         id="path25" /><path
         style="fill:none;stroke:#000000"
         d="m -791.365,1691.91 92.711,359.55"
         id="path26" /><path
         style="fill:none;stroke:#000000"
         d="m -300.026,1687.93 -96.266,363.53"
         id="path27" /><path
         style="fill:none;stroke:#000000"
         d="m -245.055,1771.96 h 0.002"
         id="path28" /><path
         style="fill:none;stroke:#000000"
         d="m -182.694,1715.27 v 37.75"
         id="path29" /><path
         d="m -150.56673,1753.0248 c 10.46757,0 18.89208,8.4265 18.89208,18.8979"
         style="fill:none;stroke:#000000"
         id="path30" /><path
         d="m -245.05501,1771.9227 c 0,-10.4692 8.42721,-18.8984 18.89649,-18.8984"
         style="fill:none;stroke:#000000"
         id="path31" /><path
         style="fill:none;stroke:#000000"
         d="M -74.9769,1771.96 -131.67,1658.58"
         id="path32" /><path
         d="m -245.05305,1771.9639 c -3e-5,-0.015 -0.002,-0.026 -0.002,-0.041"
         style="fill:none;stroke:#000000"
         id="path33" /><path
         d="m -137.24134,1301.6523 a 5.6692915,5.6692915 0 0 0 -11.33858,0 5.6692915,5.6692915 0 0 0 11.33858,0 z"
         style="fill:none;stroke:#000000"
         id="path34" /><path
         d="m -144.22725,1315.0156 v 68.0315 h -86.92913 v -68.0315 z"
         style="fill:none;stroke:#000000"
         id="path35" /><path
         style="fill:none;stroke:#000000"
         d="m -245.055,1658.58 -56.693,113.38"
         id="path36" /><path
         d="m -227.24121,1396.2469 a 5.6692915,5.6692915 0 0 0 -11.33858,0 5.6692915,5.6692915 0 0 0 11.33858,0 z"
         style="fill:none;stroke:#000000"
         id="path37" /><path
         style="fill:none;stroke:#000000"
         d="m -182.694,1753.02 h 32.127"
         id="path38" /><path
         d="m -131.67792,1771.9639 h 0.11368 56.58734 z"
         style="fill:none;stroke:#000000"
         id="path39" /><path
         d="m -131.67029,1658.5771 h 0.67099 v -196.1606 h -0.67099 z"
         style="fill:none;stroke:#000000"
         id="path40" /><path
         style="fill:none;stroke:#000000"
         d="m -194.032,1715.27 h 11.338"
         id="path41" /><path
         d="m -137.24134,1396.2469 a 5.6692915,5.6692915 0 0 0 -11.33858,0 5.6692915,5.6692915 0 0 0 11.33858,0 z"
         style="fill:none;stroke:#000000"
         id="path42" /><path
         d="m -227.24121,1301.6523 a 5.6692915,5.6692915 0 0 0 -11.33858,0 5.6692915,5.6692915 0 0 0 11.33858,0 z"
         style="fill:none;stroke:#000000"
         id="path43" /><path
         d="m -131.67465,1771.9227 c 0,0.011 -0.003,0.031 -0.003,0.041"
         style="fill:none;stroke:#000000"
         id="path44" /><path
         d="m -244.38395,1462.4165 h -0.67099 v 196.1587 h 0.67099 z"
         style="fill:none;stroke:#000000"
         id="path45" /><path
         style="fill:none;stroke:#000000"
         d="m -226.159,1753.02 h 32.127"
         id="path46" /><path
         style="fill:none;stroke:#000000"
         d="M -74.3059,1235.65 H -301.077"
         id="path47" /><path
         style="fill:none;stroke:#000000"
         d="m -194.032,1753.02 v -37.75"
         id="path48" /><path
         style="fill:none;stroke:#000000"
         d="M -74.3059,1462.42 V 1235.65"
         id="path49" /><path
         style="fill:none;stroke:#000000"
         d="m -301.077,1462.42 h 56.693"
         id="path50" /><path
         style="fill:none;stroke:#000000"
         d="m -301.748,1771.96 h 56.693"
         id="path51" /><path
         style="fill:none;stroke:#000000"
         d="m -301.077,1235.65 v 226.77"
         id="path52" /><path
         style="fill:none;stroke:#000000"
         d="m -130.999,1462.42 h 56.6931"
         id="path53" /><path
         style="fill:none;stroke:#000000"
         d="m -301.748,1771.96 h 56.684"
         id="path54" /><path
         style="fill:none;stroke:#000000"
         d="M -679.935,1443.79 V 1281.1"
         id="path55" /><path
         style="fill:none;stroke:#000000"
         d="M -415.368,1443.69 V 1281.1"
         id="path56" /><path
         d="m -791.36452,1557.1563 a 113.38583,113.38583 0 0 0 111.42987,-113.3698"
         style="fill:none;stroke:#000000"
         id="path57" /><path
         style="fill:none;stroke:#000000"
         d="m -793.574,1145.04 h 491.339"
         id="path58" /><path
         style="fill:none;stroke:#000000"
         d="m -302.235,1145.04 v 75.59"
         id="path59" /><path
         style="fill:none;stroke:#000000"
         d="m -793.574,1220.63 v -75.59"
         id="path60" /><path
         d="m -415.36782,1443.6931 a 113.38583,113.38583 0 0 0 115.34189,113.369"
         style="fill:none;stroke:#000000"
         id="path61" /><path
         d="m -245.05494,1541.7503 a 113.38385,113.38385 0 0 0 0.67099,-0.3926"
         style="fill:none;stroke:#000000"
         id="path62" /><path
         style="fill:none;stroke:#000000"
         d="m -679.935,1281.1 v -60.47"
         id="path63" /><path
         style="fill:none;stroke:#000000"
         d="m -415.368,1220.63 v 60.47"
         id="path64" /><path
         d="M -679.93465,1220.6262 H -793.57391 Z"
         style="fill:none;stroke:#000000"
         id="path65" /><path
         style="fill:none;stroke:#000000"
         d="m -415.368,1220.63 h 113.133"
         id="path66" /><path
         d="m -67.409214,1675.0208 v 491.3385 H -10.7163 v -86.2604 0.1143 l -5.3329,-5.9907 a 71.811024,71.811024 0 0 1 -18.173492,-47.7477 v -232.7012 a 71.811024,71.811024 0 0 1 18.128047,-47.6966 l 5.378345,-6.0534 v -65.0028 z"
         style="fill:none;stroke:#000000"
         id="path67" /><path
         style="fill:none;stroke:#000000"
         d="m -10.7163,1675.02 v 52.62"
         id="path68" /><path
         style="fill:none;stroke:#000000"
         d="m -10.7163,2080.1 v 0.11"
         id="path69" /><path
         style="fill:none;stroke:#000000"
         d="m -367.924,2200.77 v 0"
         id="path70" /><path
         d="m -308.52727,1903.3312 h 11.33858 v 22.6771 h -11.33858 z"
         style="fill:none;stroke:#000000"
         id="path71" /><path
         d="m -263.32545,1904.022 h 11.33858 v 22.6772 h -11.33858 z"
         style="fill:none;stroke:#000000"
         id="path72" /><path
         d="m -291.80482,1904.1313 h 11.33858 v 22.6772 h -11.33858 z"
         style="fill:none;stroke:#000000"
         id="path73" /><path
         d="m -276.85534,1903.7439 h 11.33858 v 22.6772 h -11.33858 z"
         style="fill:none;stroke:#000000"
         id="path74" /><path
         style="fill:none;stroke:#000000"
         d="m -168.677,1585.12 h -19.694"
         id="path75" /><path
         style="fill:none;stroke:#000000"
         d="m -188.371,1516.46 h 18.461"
         id="path76" /><path
         d="m -169.9103,1541.0503 a 14.176839,14.176839 0 0 0 0,-24.5921"
         style="fill:none;stroke:#000000"
         id="path77" /><path
         style="fill:none;stroke:#000000"
         d="m -170.55,1541.05 h 1.873"
         id="path78" /><path
         d="m -170.55046,1585.1244 a 22.056965,22.056965 0 1 0 0,-44.0741"
         style="fill:none;stroke:#000000"
         id="path79" /><path
         d="m -203.95843,1502.1336 a 15.249924,15.249924 0 1 0 -7.56557,0.1702"
         style="fill:none;stroke:#000000"
         id="path80" /><path
         style="fill:none;stroke:#000000"
         d="m -161.6,1551.19 v -2.45"
         id="path81" /><path
         style="fill:none;stroke:#000000"
         d="m -188.412,1519.54 h 0.041"
         id="path82" /><path
         style="fill:none;stroke:#000000"
         d="m -188.371,1521.68 h -0.021"
         id="path83" /><path
         style="fill:none;stroke:#000000"
         d="m -188.371,1516.46 v 3.08"
         id="path84" /><path
         style="fill:none;stroke:#000000"
         d="m -188.371,1521.68 v 63.44"
         id="path85" /><path
         d="m -211.524,1502.3038 a 18.952546,18.952546 0 1 0 23.13188,19.3767"
         style="fill:none;stroke:#000000"
         id="path86" /><path
         d="m -188.41182,1519.541 a 18.952546,18.952546 0 0 0 -15.54661,-17.4074"
         style="fill:none;stroke:#000000"
         id="path87" /><path
         d="m 0,1217.0079 h 37.795276 v 491.3386 H 0 Z"
         style="fill:none;stroke:#000000"
         id="path88" /><path
         d="m -285.38898,2141.2473 v -151.1811 h -11.33858 a 202.20934,202.20934 0 0 0 -64.25197,151.1811 z"
         style="fill:none;stroke:#000000"
         id="path89" /><path
         d="m 18.897638,1651.6535 h 7.559055 v -377.9527 h -7.559055 z"
         style="fill:none;stroke:#000000"
         id="path90" /><path
         d="m -204.38619,2141.7129 v -151.1811 h -11.33858 a 202.20934,202.20934 0 0 0 -64.25197,151.1811 z"
         style="fill:none;stroke:#000000"
         id="path91" /><path
         style="fill:none;stroke:#000000"
         d="M -0.992865,1756.46 112.392,1699.77"
         id="path92" /><path
         style="fill:none;stroke:#000000"
         d="m -0.992865,1807.49 v -51.03"
         id="path93" /><path
         style="fill:none;stroke:#000000"
         d="M 55.7005,1807.49 H -0.992865"
         id="path94" /><path
         style="fill:none;stroke:#000000"
         d="m 55.7005,1818.83 v -11.34"
         id="path95" /><path
         style="fill:none;stroke:#000000"
         d="M -0.99287,1818.83 H 55.7005"
         id="path96" /><path
         style="fill:none;stroke:#000000"
         d="m -0.99287,1869.85 v -51.02"
         id="path97" /><path
         style="fill:none;stroke:#000000"
         d="M 112.392,1926.54 -0.99287,1869.85"
         id="path98" /><path
         style="fill:none;stroke:#000000"
         d="m 93.615,1775.36 v 75.59"
         id="path99" /><path
         d="m 112.39191,1756.4684 c -10.41258,0.065 -18.776934,8.4656 -18.776934,18.8944"
         style="fill:none;stroke:#000000"
         id="path100" /><path
         d="m 93.614976,1850.9526 c 0,10.4263 8.374034,18.8366 18.776984,18.9016"
         style="fill:none;stroke:#000000"
         id="path101" /><path
         style="fill:none;stroke:#000000"
         d="m 112.392,1699.77 v 56.7"
         id="path102" /><path
         style="fill:none;stroke:#000000"
         d="m 112.392,1869.85 v 56.69"
         id="path103" /><path
         style="fill:none;stroke:#000000"
         d="m -245.064,1771.96 0.009,-10.51"
         id="path104" /><path
         style="fill:none;stroke:#000000"
         d="m -236.628,1753.02 h 10.469"
         id="path105" /><path
         style="fill:none;stroke:#000000"
         d="m -245.055,1761.45 8.427,-8.43"
         id="path106" /><path
         style="fill:none;stroke:#000000"
         d="m -150.567,1753.02 h 10.468"
         id="path107" /><path
         style="fill:none;stroke:#000000"
         d="m -140.099,1753.02 8.424,8.43"
         id="path108" /><path
         style="fill:none;stroke:#000000"
         d="m -131.675,1761.45 v 10.47"
         id="path109" /></g></g></svg>
